<svg width="82" height="14" viewBox="0 0 82 14" fill="none" xmlns="http://www.w3.org/2000/svg">
<path d="M1.572 1.828L0.636 1.684V1.084H2.232C2.52 1.084 2.804 1.072 3.084 1.048C3.516 1.016 3.924 0.999999 4.308 0.999999C5.468 1.008 6.288 1.224 6.768 1.648C7.248 2.072 7.488 2.712 7.488 3.568C7.488 4.208 7.34 4.764 7.044 5.236C6.748 5.708 6.336 6.068 5.808 6.316C5.288 6.564 4.688 6.688 4.008 6.688C3.776 6.688 3.54 6.684 3.3 6.676C3.06 6.66 2.912 6.648 2.856 6.64V9.28L4.5 9.412V10H0.576V9.412L1.572 9.292V1.828ZM2.856 5.98C3.08 6.02 3.464 6.04 4.008 6.04C4.64 6.04 5.152 5.848 5.544 5.464C5.944 5.08 6.144 4.452 6.144 3.58C6.144 2.892 5.972 2.4 5.628 2.104C5.284 1.8 4.748 1.648 4.02 1.648C3.764 1.648 3.492 1.664 3.204 1.696C3.028 1.712 2.912 1.72 2.856 1.72V5.98ZM11.285 10.132C10.317 10.132 9.57697 9.816 9.06497 9.184C8.56097 8.552 8.30897 7.708 8.30897 6.652C8.30897 5.956 8.44097 5.344 8.70497 4.816C8.96897 4.288 9.33697 3.88 9.80897 3.592C10.289 3.304 10.833 3.16 11.441 3.16C12.185 3.16 12.761 3.368 13.169 3.784C13.585 4.192 13.805 4.78 13.829 5.548C13.829 6.036 13.801 6.408 13.745 6.664H9.61697C9.63297 7.456 9.81697 8.096 10.169 8.584C10.521 9.064 11.021 9.304 11.669 9.304C11.989 9.304 12.321 9.248 12.665 9.136C13.017 9.016 13.289 8.876 13.481 8.716L13.709 9.244C13.477 9.484 13.133 9.692 12.677 9.868C12.221 10.044 11.757 10.132 11.285 10.132ZM12.509 6.028C12.533 5.86 12.545 5.688 12.545 5.512C12.537 4.992 12.425 4.584 12.209 4.288C12.001 3.984 11.669 3.832 11.213 3.832C10.749 3.832 10.377 4 10.097 4.336C9.82497 4.672 9.66897 5.236 9.62897 6.028H12.509ZM14.8843 9.412L15.7843 9.34V4.264L14.9203 4.048V3.4L16.5763 3.184H16.6003L16.8643 3.4V3.616L16.8283 4.552H16.8643C16.9443 4.416 17.0883 4.24 17.2963 4.024C17.5043 3.808 17.7723 3.612 18.1003 3.436C18.4283 3.252 18.7843 3.16 19.1683 3.16C19.3283 3.16 19.4603 3.18 19.5643 3.22V4.564C19.5083 4.524 19.4163 4.488 19.2883 4.456C19.1683 4.416 19.0323 4.396 18.8803 4.396C18.2163 4.396 17.6003 4.6 17.0323 5.008V9.328L18.5563 9.424V10H14.8843V9.412ZM21.4724 9.04C21.5524 9.16 21.7204 9.268 21.9764 9.364C22.2404 9.46 22.5164 9.508 22.8044 9.508C23.2604 9.508 23.5964 9.42 23.8124 9.244C24.0284 9.068 24.1364 8.824 24.1364 8.512C24.1364 8.296 24.0684 8.108 23.9324 7.948C23.7964 7.788 23.6044 7.648 23.3564 7.528C23.1164 7.4 22.7684 7.248 22.3124 7.072C21.6964 6.84 21.2444 6.564 20.9564 6.244C20.6764 5.916 20.5364 5.488 20.5364 4.96C20.5364 4.608 20.6404 4.3 20.8484 4.036C21.0644 3.772 21.3564 3.568 21.7244 3.424C22.1004 3.272 22.5164 3.196 22.9724 3.196C23.3404 3.196 23.6604 3.224 23.9324 3.28C24.2124 3.336 24.4364 3.392 24.6044 3.448C24.7724 3.504 24.8844 3.54 24.9404 3.556V5.044H24.2084L23.9684 4.156C23.9204 4.06 23.7924 3.98 23.5844 3.916C23.3764 3.844 23.1444 3.808 22.8884 3.808C22.5284 3.808 22.2364 3.888 22.0124 4.048C21.7964 4.208 21.6884 4.424 21.6884 4.696C21.6884 4.936 21.7444 5.136 21.8564 5.296C21.9764 5.448 22.1244 5.572 22.3004 5.668C22.4764 5.764 22.7164 5.876 23.0204 6.004L23.2604 6.1C23.7084 6.276 24.0724 6.444 24.3524 6.604C24.6324 6.764 24.8644 6.976 25.0484 7.24C25.2404 7.496 25.3364 7.812 25.3364 8.188C25.3364 8.78 25.1044 9.252 24.6404 9.604C24.1844 9.956 23.5564 10.132 22.7564 10.132C22.3644 10.132 21.9524 10.08 21.5204 9.976C21.0964 9.864 20.7484 9.752 20.4764 9.64V8.104H21.2564L21.4724 9.04ZM26.415 6.652C26.415 5.932 26.563 5.308 26.859 4.78C27.155 4.252 27.543 3.852 28.023 3.58C28.511 3.3 29.031 3.16 29.583 3.16C30.591 3.16 31.347 3.48 31.851 4.12C32.363 4.76 32.619 5.6 32.619 6.64C32.619 7.368 32.471 7.996 32.175 8.524C31.879 9.052 31.487 9.452 30.999 9.724C30.519 9.996 30.003 10.132 29.451 10.132C28.443 10.132 27.683 9.812 27.171 9.172C26.667 8.532 26.415 7.692 26.415 6.652ZM29.523 9.448C30.075 9.448 30.499 9.22 30.795 8.764C31.091 8.308 31.239 7.632 31.239 6.736C31.239 5.848 31.103 5.144 30.831 4.624C30.559 4.104 30.123 3.844 29.523 3.844C28.971 3.844 28.543 4.072 28.239 4.528C27.943 4.984 27.795 5.66 27.795 6.556C27.795 7.444 27.935 8.148 28.215 8.668C28.495 9.188 28.931 9.448 29.523 9.448ZM34.4358 4.264L33.5718 4.048V3.4L35.2878 3.184H35.3238L35.5758 3.4V3.904L35.5638 4.192C35.8518 3.936 36.2318 3.704 36.7038 3.496C37.1758 3.288 37.6278 3.184 38.0598 3.184C38.5638 3.184 38.9518 3.28 39.2238 3.472C39.5038 3.664 39.6998 3.96 39.8118 4.36C39.9238 4.752 39.9798 5.284 39.9798 5.956V9.316L40.8198 9.4V10H37.9758V9.412L38.7198 9.316V5.944C38.7198 5.472 38.6878 5.104 38.6238 4.84C38.5598 4.568 38.4398 4.368 38.2638 4.24C38.0878 4.104 37.8318 4.036 37.4958 4.036C37.2078 4.036 36.8998 4.108 36.5718 4.252C36.2438 4.396 35.9518 4.564 35.6958 4.756V9.304L36.5118 9.412V10H33.6798V9.412L34.4358 9.304V4.264ZM41.6845 8.2C41.6845 7.448 42.0605 6.896 42.8125 6.544C43.5645 6.184 44.5165 5.992 45.6685 5.968V5.632C45.6685 5.256 45.6285 4.96 45.5485 4.744C45.4685 4.528 45.3285 4.372 45.1285 4.276C44.9365 4.172 44.6605 4.12 44.3005 4.12C43.8925 4.12 43.5245 4.18 43.1965 4.3C42.8765 4.412 42.5565 4.552 42.2365 4.72L41.9365 4.096C42.0405 4.008 42.2325 3.892 42.5125 3.748C42.7925 3.604 43.1165 3.476 43.4845 3.364C43.8525 3.252 44.2205 3.196 44.5885 3.196C45.1565 3.196 45.6045 3.276 45.9325 3.436C46.2685 3.588 46.5085 3.836 46.6525 4.18C46.7965 4.524 46.8685 4.984 46.8685 5.56V9.412H47.5765V9.94C47.4165 9.98 47.2125 10.02 46.9645 10.06C46.7245 10.1 46.5125 10.12 46.3285 10.12C46.1045 10.12 45.9525 10.084 45.8725 10.012C45.7925 9.948 45.7525 9.8 45.7525 9.568V9.172C45.5125 9.412 45.2165 9.632 44.8645 9.832C44.5205 10.032 44.1285 10.132 43.6885 10.132C43.1125 10.132 42.6325 9.968 42.2485 9.64C41.8725 9.304 41.6845 8.824 41.6845 8.2ZM44.2045 9.316C44.4125 9.316 44.6525 9.252 44.9245 9.124C45.1965 8.996 45.4445 8.844 45.6685 8.668V6.604C44.7965 6.604 44.1365 6.74 43.6885 7.012C43.2485 7.276 43.0285 7.624 43.0285 8.056C43.0285 8.488 43.1325 8.808 43.3405 9.016C43.5565 9.216 43.8445 9.316 44.2045 9.316ZM49.2871 1.048L48.3151 0.916V0.4L50.2471 0.171999H50.2711L50.5351 0.352V9.316L51.5551 9.412V10H48.3151V9.412L49.2871 9.304V1.048ZM56.2628 1.828L55.2788 1.684V1.084H56.8988C57.1708 1.084 57.5148 1.068 57.9308 1.036C58.3148 1.004 58.5988 0.987999 58.7828 0.987999C59.8868 0.987999 60.6748 1.16 61.1468 1.504C61.6268 1.848 61.8668 2.352 61.8668 3.016C61.8668 3.584 61.7028 4.072 61.3748 4.48C61.0468 4.888 60.5988 5.144 60.0308 5.248C60.7988 5.232 61.4028 5.412 61.8428 5.788C62.2828 6.164 62.5028 6.676 62.5028 7.324C62.5028 8.132 62.2148 8.792 61.6388 9.304C61.0708 9.816 60.1268 10.072 58.8068 10.072C58.5188 10.072 58.2428 10.06 57.9788 10.036C57.3548 10.012 56.9828 10 56.8628 10H55.2668V9.412L56.2628 9.292V1.828ZM57.5348 5.02C57.6468 5.028 57.8748 5.032 58.2188 5.032H58.8788C59.4388 5.032 59.8628 4.876 60.1508 4.564C60.4388 4.252 60.5828 3.808 60.5828 3.232C60.5828 2.672 60.4388 2.264 60.1508 2.008C59.8628 1.744 59.3708 1.612 58.6748 1.612C58.3868 1.612 58.0908 1.628 57.7868 1.66L57.5348 1.684V5.02ZM57.5348 9.328C57.7188 9.392 58.1348 9.424 58.7828 9.424C59.5908 9.424 60.1748 9.26 60.5348 8.932C60.9028 8.596 61.0868 8.116 61.0868 7.492C61.0868 6.876 60.9268 6.428 60.6068 6.148C60.2948 5.868 59.7868 5.728 59.0828 5.728C58.2668 5.728 57.7508 5.736 57.5348 5.752V9.328ZM64.3457 1.048L63.3737 0.916V0.4L65.3057 0.171999H65.3297L65.5937 0.352V9.316L66.6137 9.412V10H63.3737V9.412L64.3457 9.304V1.048ZM67.4658 6.652C67.4658 5.932 67.6138 5.308 67.9098 4.78C68.2058 4.252 68.5938 3.852 69.0738 3.58C69.5618 3.3 70.0818 3.16 70.6338 3.16C71.6418 3.16 72.3978 3.48 72.9018 4.12C73.4138 4.76 73.6698 5.6 73.6698 6.64C73.6698 7.368 73.5218 7.996 73.2258 8.524C72.9298 9.052 72.5378 9.452 72.0498 9.724C71.5698 9.996 71.0538 10.132 70.5018 10.132C69.4938 10.132 68.7338 9.812 68.2218 9.172C67.7178 8.532 67.4658 7.692 67.4658 6.652ZM70.5738 9.448C71.1258 9.448 71.5498 9.22 71.8458 8.764C72.1418 8.308 72.2898 7.632 72.2898 6.736C72.2898 5.848 72.1538 5.144 71.8818 4.624C71.6098 4.104 71.1738 3.844 70.5738 3.844C70.0218 3.844 69.5938 4.072 69.2898 4.528C68.9938 4.984 68.8458 5.66 68.8458 6.556C68.8458 7.444 68.9858 8.148 69.2658 8.668C69.5458 9.188 69.9818 9.448 70.5738 9.448ZM77.6346 13.24C76.6106 13.24 75.8666 13.076 75.4026 12.748C74.9466 12.428 74.7186 11.984 74.7186 11.416C74.7186 11.064 74.8266 10.74 75.0426 10.444C75.2666 10.148 75.5306 9.924 75.8346 9.772C75.4666 9.564 75.2826 9.228 75.2826 8.764C75.2826 8.476 75.3666 8.204 75.5346 7.948C75.7026 7.692 75.9226 7.496 76.1946 7.36C75.7946 7.184 75.4866 6.932 75.2706 6.604C75.0626 6.276 74.9586 5.888 74.9586 5.44C74.9586 4.976 75.0866 4.572 75.3426 4.228C75.6066 3.884 75.9506 3.62 76.3746 3.436C76.8066 3.252 77.2626 3.16 77.7426 3.16C78.5506 3.16 79.1826 3.328 79.6386 3.664C79.7586 3.544 79.9426 3.428 80.1906 3.316C80.4386 3.204 80.7026 3.148 80.9826 3.148H81.3906V4.204H80.0706C80.2626 4.5 80.3586 4.844 80.3586 5.236C80.3586 5.708 80.2386 6.128 79.9986 6.496C79.7666 6.856 79.4386 7.136 79.0146 7.336C78.5986 7.536 78.1266 7.636 77.5986 7.636C77.2546 7.636 76.9466 7.6 76.6746 7.528C76.5626 7.64 76.4706 7.764 76.3986 7.9C76.3266 8.036 76.2906 8.168 76.2906 8.296C76.2906 8.584 76.3866 8.784 76.5786 8.896C76.7706 9 77.1146 9.052 77.6106 9.052H78.9666C79.7426 9.052 80.3186 9.2 80.6946 9.496C81.0706 9.792 81.2586 10.212 81.2586 10.756C81.2586 11.212 81.0946 11.628 80.7666 12.004C80.4386 12.388 79.9946 12.688 79.4346 12.904C78.8826 13.128 78.2826 13.24 77.6346 13.24ZM77.7186 6.976C78.6306 6.976 79.0866 6.436 79.0866 5.356C79.0866 4.82 78.9666 4.428 78.7266 4.18C78.4946 3.924 78.1426 3.796 77.6706 3.796C77.2306 3.796 76.8826 3.92 76.6266 4.168C76.3706 4.408 76.2426 4.796 76.2426 5.332C76.2426 5.836 76.3626 6.236 76.6026 6.532C76.8506 6.828 77.2226 6.976 77.7186 6.976ZM77.7426 12.544C78.1346 12.544 78.5026 12.484 78.8466 12.364C79.1986 12.252 79.4826 12.08 79.6986 11.848C79.9146 11.624 80.0226 11.36 80.0226 11.056C80.0226 10.696 79.9266 10.432 79.7346 10.264C79.5426 10.104 79.1706 10.024 78.6186 10.024H77.2026C76.8826 10.024 76.6306 10.004 76.4466 9.964C76.1186 10.324 75.9546 10.728 75.9546 11.176C75.9546 11.624 76.0906 11.964 76.3626 12.196C76.6346 12.428 77.0946 12.544 77.7426 12.544Z" fill="white"/>
</svg>
