<svg width="108" height="25" viewBox="0 0 108 25" fill="none" xmlns="http://www.w3.org/2000/svg">
<path d="M29.34 17.098C28.6587 17.098 28.0427 16.9813 27.492 16.748C26.9507 16.5147 26.5213 16.1787 26.204 15.74C25.8867 15.3013 25.7233 14.7833 25.714 14.186H27.814C27.842 14.5873 27.982 14.9047 28.234 15.138C28.4953 15.3713 28.85 15.488 29.298 15.488C29.7553 15.488 30.1147 15.3807 30.376 15.166C30.6373 14.942 30.768 14.6527 30.768 14.298C30.768 14.0087 30.6793 13.7707 30.502 13.584C30.3247 13.3973 30.1007 13.2527 29.83 13.15C29.5687 13.038 29.2047 12.9167 28.738 12.786C28.1033 12.5993 27.5853 12.4173 27.184 12.24C26.792 12.0533 26.4513 11.778 26.162 11.414C25.882 11.0407 25.742 10.546 25.742 9.93C25.742 9.35133 25.8867 8.84733 26.176 8.418C26.4653 7.98867 26.8713 7.662 27.394 7.438C27.9167 7.20467 28.514 7.088 29.186 7.088C30.194 7.088 31.0107 7.33533 31.636 7.83C32.2707 8.31533 32.6207 8.99667 32.686 9.874H30.53C30.5113 9.538 30.3667 9.26267 30.096 9.048C29.8347 8.824 29.4847 8.712 29.046 8.712C28.6633 8.712 28.3553 8.81 28.122 9.006C27.898 9.202 27.786 9.48667 27.786 9.86C27.786 10.1213 27.87 10.3407 28.038 10.518C28.2153 10.686 28.43 10.826 28.682 10.938C28.9433 11.0407 29.3073 11.162 29.774 11.302C30.4087 11.4887 30.9267 11.6753 31.328 11.862C31.7293 12.0487 32.0747 12.3287 32.364 12.702C32.6533 13.0753 32.798 13.5653 32.798 14.172C32.798 14.6947 32.6627 15.18 32.392 15.628C32.1213 16.076 31.7247 16.4353 31.202 16.706C30.6793 16.9673 30.0587 17.098 29.34 17.098ZM36.7793 10.854V14.606C36.7793 14.8673 36.8399 15.0587 36.9613 15.18C37.0919 15.292 37.3066 15.348 37.6053 15.348H38.5153V17H37.2833C35.6313 17 34.8053 16.1973 34.8053 14.592V10.854H33.8813V9.244H34.8053V7.326H36.7793V9.244H38.5153V10.854H36.7793ZM47.247 9.244V17H45.273V16.02C45.021 16.356 44.6897 16.622 44.279 16.818C43.8777 17.0047 43.439 17.098 42.963 17.098C42.3563 17.098 41.8197 16.972 41.353 16.72C40.8863 16.4587 40.5177 16.0807 40.247 15.586C39.9857 15.082 39.855 14.4847 39.855 13.794V9.244H41.815V13.514C41.815 14.13 41.969 14.606 42.277 14.942C42.585 15.2687 43.005 15.432 43.537 15.432C44.0783 15.432 44.503 15.2687 44.811 14.942C45.119 14.606 45.273 14.13 45.273 13.514V9.244H47.247ZM48.6768 13.094C48.6768 12.31 48.8308 11.6147 49.1388 11.008C49.4562 10.4013 49.8855 9.93467 50.4268 9.608C50.9682 9.28133 51.5702 9.118 52.2328 9.118C52.7368 9.118 53.2175 9.23 53.6748 9.454C54.1322 9.66867 54.4962 9.958 54.7668 10.322V6.64H56.7548V17H54.7668V15.852C54.5242 16.2347 54.1835 16.5427 53.7448 16.776C53.3062 17.0093 52.7975 17.126 52.2188 17.126C51.5655 17.126 50.9682 16.958 50.4268 16.622C49.8855 16.286 49.4562 15.8147 49.1388 15.208C48.8308 14.592 48.6768 13.8873 48.6768 13.094ZM54.7808 13.122C54.7808 12.646 54.6875 12.24 54.5008 11.904C54.3142 11.5587 54.0622 11.2973 53.7448 11.12C53.4275 10.9333 53.0868 10.84 52.7228 10.84C52.3588 10.84 52.0228 10.9287 51.7148 11.106C51.4068 11.2833 51.1548 11.5447 50.9588 11.89C50.7722 12.226 50.6788 12.6273 50.6788 13.094C50.6788 13.5607 50.7722 13.9713 50.9588 14.326C51.1548 14.6713 51.4068 14.9373 51.7148 15.124C52.0322 15.3107 52.3682 15.404 52.7228 15.404C53.0868 15.404 53.4275 15.3153 53.7448 15.138C54.0622 14.9513 54.3142 14.69 54.5008 14.354C54.6875 14.0087 54.7808 13.598 54.7808 13.122ZM66.0891 9.244L61.2871 20.668H59.2011L60.8811 16.804L57.7731 9.244H59.9711L61.9731 14.662L64.0031 9.244H66.0891ZM72.1857 17L70.0297 13.192H69.1057V17H67.1457V7.228H70.8137C71.5697 7.228 72.2137 7.36333 72.7457 7.634C73.2777 7.89533 73.6744 8.25467 73.9357 8.712C74.2064 9.16 74.3417 9.664 74.3417 10.224C74.3417 10.868 74.155 11.4513 73.7817 11.974C73.4084 12.4873 72.853 12.842 72.1157 13.038L74.4537 17H72.1857ZM69.1057 11.722H70.7437C71.2757 11.722 71.6724 11.596 71.9337 11.344C72.195 11.0827 72.3257 10.7233 72.3257 10.266C72.3257 9.818 72.195 9.47267 71.9337 9.23C71.6724 8.978 71.2757 8.852 70.7437 8.852H69.1057V11.722ZM79.5584 17.126C78.8118 17.126 78.1398 16.9627 77.5424 16.636C76.9451 16.3 76.4738 15.8287 76.1284 15.222C75.7924 14.6153 75.6244 13.9153 75.6244 13.122C75.6244 12.3287 75.7971 11.6287 76.1424 11.022C76.4971 10.4153 76.9778 9.94867 77.5844 9.622C78.1911 9.286 78.8678 9.118 79.6144 9.118C80.3611 9.118 81.0378 9.286 81.6444 9.622C82.2511 9.94867 82.7271 10.4153 83.0724 11.022C83.4271 11.6287 83.6044 12.3287 83.6044 13.122C83.6044 13.9153 83.4224 14.6153 83.0584 15.222C82.7038 15.8287 82.2184 16.3 81.6024 16.636C80.9958 16.9627 80.3144 17.126 79.5584 17.126ZM79.5584 15.418C79.9131 15.418 80.2444 15.334 80.5524 15.166C80.8698 14.9887 81.1218 14.7273 81.3084 14.382C81.4951 14.0367 81.5884 13.6167 81.5884 13.122C81.5884 12.3847 81.3924 11.82 81.0004 11.428C80.6178 11.0267 80.1464 10.826 79.5864 10.826C79.0264 10.826 78.5551 11.0267 78.1724 11.428C77.7991 11.82 77.6124 12.3847 77.6124 13.122C77.6124 13.8593 77.7944 14.4287 78.1584 14.83C78.5318 15.222 78.9984 15.418 79.5584 15.418ZM88.4862 17.126C87.7395 17.126 87.0675 16.9627 86.4702 16.636C85.8728 16.3 85.4015 15.8287 85.0562 15.222C84.7202 14.6153 84.5522 13.9153 84.5522 13.122C84.5522 12.3287 84.7248 11.6287 85.0702 11.022C85.4248 10.4153 85.9055 9.94867 86.5122 9.622C87.1188 9.286 87.7955 9.118 88.5422 9.118C89.2888 9.118 89.9655 9.286 90.5722 9.622C91.1788 9.94867 91.6548 10.4153 92.0002 11.022C92.3548 11.6287 92.5322 12.3287 92.5322 13.122C92.5322 13.9153 92.3502 14.6153 91.9862 15.222C91.6315 15.8287 91.1462 16.3 90.5302 16.636C89.9235 16.9627 89.2422 17.126 88.4862 17.126ZM88.4862 15.418C88.8408 15.418 89.1722 15.334 89.4802 15.166C89.7975 14.9887 90.0495 14.7273 90.2362 14.382C90.4228 14.0367 90.5162 13.6167 90.5162 13.122C90.5162 12.3847 90.3202 11.82 89.9282 11.428C89.5455 11.0267 89.0742 10.826 88.5142 10.826C87.9542 10.826 87.4828 11.0267 87.1002 11.428C86.7268 11.82 86.5402 12.3847 86.5402 13.122C86.5402 13.8593 86.7222 14.4287 87.0862 14.83C87.4595 15.222 87.9262 15.418 88.4862 15.418ZM103.602 9.132C104.554 9.132 105.319 9.426 105.898 10.014C106.486 10.5927 106.78 11.4047 106.78 12.45V17H104.82V12.716C104.82 12.1093 104.666 11.6473 104.358 11.33C104.05 11.0033 103.63 10.84 103.098 10.84C102.566 10.84 102.141 11.0033 101.824 11.33C101.516 11.6473 101.362 12.1093 101.362 12.716V17H99.4019V12.716C99.4019 12.1093 99.2479 11.6473 98.9399 11.33C98.6319 11.0033 98.2119 10.84 97.6799 10.84C97.1386 10.84 96.7092 11.0033 96.3919 11.33C96.0839 11.6473 95.9299 12.1093 95.9299 12.716V17H93.9699V9.244H95.9299V10.182C96.1819 9.85533 96.5039 9.59867 96.8959 9.412C97.2972 9.22533 97.7359 9.132 98.2119 9.132C98.8186 9.132 99.3599 9.26267 99.8359 9.524C100.312 9.776 100.681 10.14 100.942 10.616C101.194 10.168 101.558 9.80867 102.034 9.538C102.519 9.26733 103.042 9.132 103.602 9.132Z" fill="white"/>
<rect x="0.5" y="0.5" width="19" height="24" rx="1.5" fill="white" stroke="black"/>
<rect x="3.5" y="3.5" width="5" height="8" rx="1.5" fill="white" stroke="black"/>
<rect x="11.5" y="3.5" width="5" height="8" rx="1.5" fill="#FBFF26" stroke="black"/>
<rect x="3.5" y="13.5" width="5" height="8" rx="1.5" fill="white" stroke="black"/>
<rect x="11.5" y="13.5" width="5" height="8" rx="1.5" fill="white" stroke="black"/>
</svg>
