<?xml version="1.0" encoding="UTF-8" standalone="no"?> <!-- Created with Vectornator for iOS (http://vectornator.io/) --><!DOCTYPE svg PUBLIC "-//W3C//DTD SVG 1.1//EN" "http://www.w3.org/Graphics/SVG/1.1/DTD/svg11.dtd">
<svg height="100%" style="fill-rule:nonzero;clip-rule:evenodd;stroke-linecap:round;stroke-linejoin:round;" xmlns:xlink="http://www.w3.org/1999/xlink" xmlns="http://www.w3.org/2000/svg" xml:space="preserve" width="100%" xmlns:vectornator="http://vectornator.io" version="1.1" viewBox="0 0 516.336 188.988">
<metadata>
<vectornator:setting key="DimensionsVisible" value="1"/>
<vectornator:setting key="PencilOnly" value="0"/>
<vectornator:setting key="SnapToPoints" value="0"/>
<vectornator:setting key="OutlineMode" value="0"/>
<vectornator:setting key="CMYKEnabledKey" value="0"/>
<vectornator:setting key="RulersVisible" value="1"/>
<vectornator:setting key="SnapToEdges" value="0"/>
<vectornator:setting key="GuidesVisible" value="1"/>
<vectornator:setting key="DisplayWhiteBackground" value="0"/>
<vectornator:setting key="doHistoryDisabled" value="0"/>
<vectornator:setting key="SnapToGuides" value="1"/>
<vectornator:setting key="TimeLapseWatermarkDisabled" value="0"/>
<vectornator:setting key="Units" value="Points"/>
<vectornator:setting key="DynamicGuides" value="0"/>
<vectornator:setting key="IsolateActiveLayer" value="0"/>
<vectornator:setting key="SnapToGrid" value="0"/>
</metadata>
<defs/>
<g id="Layer 1" vectornator:layerName="Layer 1">
<path d="M503.82+53.5926L442.225+53.5926L442.225+27.5076L503.82+27.5076L503.82+53.5926Z" opacity="1" fill="#231f20"/>
<path d="M149.055+102.557C143.386+102.557+138.758+101.518+135.014+97.6689L140.838+91.8449C142.763+93.7689+146.143+94.4459+149.107+94.4459C152.695+94.4459+154.411+93.2489+154.411+91.1179C154.411+90.2329+154.202+89.5049+153.683+88.9329C153.215+88.4649+152.435+88.1009+151.239+87.9449L146.767+87.3209C143.491+86.8529+140.994+85.7609+139.33+84.0449C137.615+82.2769+136.783+79.7809+136.783+76.6089C136.783+69.8479+141.878+64.9089+150.303+64.9089C155.607+64.9089+159.611+66.1569+162.784+69.3279L157.063+75.0479C154.723+72.7079+151.655+72.8649+150.042+72.8649C146.87+72.8649+145.571+74.6839+145.571+76.2959C145.571+76.7639+145.727+77.4409+146.298+78.0119C146.767+78.4809+147.546+78.9489+148.847+79.1049L153.319+79.7289C156.647+80.1969+159.039+81.2369+160.599+82.7969C162.576+84.7209+163.355+87.4769+163.355+90.9089C163.355+98.4499+156.855+102.557+149.055+102.557" opacity="1" fill="#231f20"/>
<path d="M184.31+73.3323L184.31+102.245L175.209+102.245L175.209+73.3323L166.109+73.3323L166.109+65.2203L193.411+65.2203L193.411+73.3323L184.31+73.3323Z" opacity="1" fill="#231f20"/>
<path d="M213.118+102.557C205.422+102.557+199.13+97.3579+199.13+89.2439L199.13+65.2199L208.23+65.2199L208.23+89.0369C208.23+92.4689+210.102+94.4459+213.118+94.4459C216.135+94.4459+218.11+92.4689+218.11+89.0369L218.11+65.2199L227.211+65.2199L227.211+89.2439C227.211+97.3579+220.814+102.557+213.118+102.557" opacity="1" fill="#231f20"/>
<path d="M252.586+75.4123C251.754+74.1643+250.506+73.3323+248.218+73.3323L244.214+73.3323L244.214+94.1333L248.218+94.1333C250.506+94.1333+251.754+93.3013+252.586+92.0533C253.315+91.0133+253.574+90.0243+253.574+83.7323C253.574+77.4923+253.315+76.4523+252.586+75.4123M258.826+98.6053C256.278+101.153+252.69+102.245+248.842+102.245L235.113+102.245L235.113+65.2203L248.842+65.2203C252.69+65.2203+256.278+66.3113+258.826+68.8593C263.143+73.1763+262.674+77.9083+262.674+83.7323C262.674+89.5573+263.143+94.2893+258.826+98.6053" opacity="1" fill="#231f20"/>
<path d="M286.021+87.1643L286.021+102.245L276.92+102.245L276.92+87.1643L265.74+65.2203L275.672+65.2203L281.497+78.5323L287.269+65.2203L297.201+65.2203L286.021+87.1643Z" opacity="1" fill="#231f20"/>
<path d="M316.231+73.384L311.085+73.384L311.085+80.872L316.231+80.872C318.727+80.872+320.184+79.053+320.184+77.128C320.184+75.204+318.727+73.384+316.231+73.384M320.704+102.245L314.151+88.465L311.085+88.465L311.085+102.245L301.983+102.245L301.983+65.22L316.647+65.22C324.864+65.22+329.284+71.044+329.284+77.128C329.284+82.172+326.165+85.345+323.252+86.801L331.26+102.245L320.704+102.245Z" opacity="1" fill="#231f20"/>
<path d="M353.464+74.6321C352.788+73.7481+351.489+73.0201+349.825+73.0201C348.161+73.0201+346.86+73.7481+346.185+74.6321C345.353+75.7251+344.833+76.9731+344.833+83.7331C344.833+90.4921+345.353+91.6891+346.185+92.7811C346.86+93.6651+348.161+94.4451+349.825+94.4451C351.489+94.4451+352.788+93.6651+353.464+92.7811C354.296+91.6891+354.818+90.4921+354.818+83.7331C354.818+76.9731+354.296+75.7251+353.464+74.6321M360.173+98.3971C357.47+101.102+354.349+102.557+349.825+102.557C345.3+102.557+342.181+101.102+339.476+98.3971C335.575+94.4971+335.732+89.2971+335.732+83.7331C335.732+78.1681+335.575+72.9681+339.476+69.0691C342.181+66.3631+345.3+64.9081+349.825+64.9081C354.349+64.9081+357.47+66.3631+360.173+69.0691C364.073+72.9681+363.917+78.1681+363.917+83.7331C363.917+89.2971+364.073+94.4971+360.173+98.3971" opacity="1" fill="#231f20"/>
<path d="M387.784+74.6321C387.108+73.7481+385.807+73.0201+384.143+73.0201C382.479+73.0201+381.18+73.7481+380.503+74.6321C379.671+75.7251+379.151+76.9731+379.151+83.7331C379.151+90.4921+379.671+91.6891+380.503+92.7811C381.18+93.6651+382.479+94.4451+384.143+94.4451C385.807+94.4451+387.108+93.6651+387.784+92.7811C388.616+91.6891+389.136+90.4921+389.136+83.7331C389.136+76.9731+388.616+75.7251+387.784+74.6321M394.493+98.3971C391.788+101.102+388.669+102.557+384.143+102.557C379.62+102.557+376.499+101.102+373.796+98.3971C369.895+94.4971+370.052+89.2971+370.052+83.7331C370.052+78.1681+369.895+72.9681+373.796+69.0691C376.499+66.3631+379.62+64.9081+384.143+64.9081C388.669+64.9081+391.788+66.3631+394.493+69.0691C398.391+72.9681+398.237+78.1681+398.237+83.7331C398.237+89.2971+398.391+94.4971+394.493+98.3971" opacity="1" fill="#231f20"/>
<path d="M430.997+102.245L430.997+84.5134L425.745+93.6654L419.921+93.6654L414.669+84.5134L414.669+102.245L405.567+102.245L405.567+65.2204L414.513+65.2204L422.833+81.5494L431.153+65.2204L440.097+65.2204L440.097+102.245L430.997+102.245Z" opacity="1" fill="#231f20"/>
<path d="M449.007+48.1526L449.007+32.8786L452.761+32.8786L452.761+44.8066L459.176+44.8066L459.176+48.1526L449.007+48.1526Z" opacity="1" fill="#fff200"/>
<path d="M463.078+32.8786L466.833+32.8786L466.833+48.1526L463.078+48.1526L463.078+32.8786Z" opacity="1" fill="#fff200"/>
<path d="M477.922+48.1526L475.133+48.1526L470.091+32.8786L473.975+32.8786L476.549+41.4166L479.08+32.8786L482.984+32.8786L477.922+48.1526Z" opacity="1" fill="#fff200"/>
<path d="M486.243+48.1526L486.243+32.8786L496.626+32.8786L496.626+36.2246L489.997+36.2246L489.997+38.7776L495.66+38.7776L495.66+42.1246L489.997+42.1246L489.997+44.8066L496.626+44.8066L496.626+48.1526L486.243+48.1526Z" opacity="1" fill="#fff200"/>
<path d="M89.1929+135.768L12.4119+159.48L12.4119+39.2263L89.1929+15.5153L89.1929+135.768Z" opacity="1" fill="#ffffff"/>
<path d="M13.6968+40.175L13.6968+157.738L87.9078+134.82L87.9078+17.257L13.6968+40.175ZM11.1268+161.222L11.1268+38.279L90.4778+13.773L90.4778+136.717L11.1268+161.222Z" opacity="1" fill="#231f20"/>
<path d="M98.2769+144.338L21.4949+168.05L21.4949+47.7966L98.2769+24.0846L98.2769+144.338Z" opacity="1" fill="#ffffff"/>
<path d="M22.7808+48.7449L22.7808+166.308L96.9908+143.39L96.9908+25.8269L22.7808+48.7449ZM20.2108+169.792L20.2108+46.8489L99.5608+22.3429L99.5608+145.286L20.2108+169.792Z" opacity="1" fill="#231f20"/>
<path d="M106.745+152.806L29.9637+176.518L29.9637+56.2644L106.745+32.5534L106.745+152.806Z" opacity="1" fill="#ffffff"/>
<path d="M31.2496+57.2131L31.2496+174.776L105.46+151.858L105.46+34.2951L31.2496+57.2131ZM28.6786+178.26L28.6786+55.3171L108.03+30.8111L108.03+153.755L28.6786+178.26Z" opacity="1" fill="#231f20"/>
<path d="M65.4273+94.9177L47.6213+100.417L47.6213+72.5307L65.4273+67.0317L65.4273+94.9177Z" opacity="1" fill="#ffffff"/>
<path d="M48.9078+73.4788L48.9078+98.6748L64.1418+93.9698L64.1418+68.7738L48.9078+73.4788ZM46.3378+102.159L46.3378+71.5828L66.7128+65.2908L66.7128+95.8658L46.3378+102.159Z" opacity="1" fill="#231f20"/>
<path d="M91.3521+88.5588L73.5471+94.0578L73.5471+66.1718L91.3521+60.6728L91.3521+88.5588Z" opacity="1" fill="#fff200"/>
<path d="M74.8326+67.1199L74.8326+92.3149L90.0666+87.6109L90.0666+62.4149L74.8326+67.1199ZM72.2616+95.7999L72.2616+65.2239L92.6376+58.9319L92.6376+89.5069L72.2616+95.7999Z" opacity="1" fill="#231f20"/>
<path d="M65.4273+131.468L47.6213+136.966L47.6213+109.08L65.4273+103.582L65.4273+131.468Z" opacity="1" fill="#ffffff"/>
<path d="M48.9078+110.029L48.9078+135.224L64.1418+130.52L64.1418+105.325L48.9078+110.029ZM46.3378+138.709L46.3378+108.133L66.7128+101.841L66.7128+132.417L46.3378+138.709Z" opacity="1" fill="#231f20"/>
<path d="M91.3521+125.109L73.5471+130.608L73.5471+102.722L91.3521+97.2241L91.3521+125.109Z" opacity="1" fill="#ffffff"/>
<path d="M74.8326+103.67L74.8326+128.866L90.0666+124.161L90.0666+98.9662L74.8326+103.67ZM72.2616+132.35L72.2616+101.774L92.6376+95.4822L92.6376+126.057L72.2616+132.35Z" opacity="1" fill="#231f20"/>
<path d="M47.608+86.9402L66.348+81.3152" opacity="1" fill="#b2e0e2"/>
<path d="M47.9781+88.1711L47.2391+85.7091L65.9791+80.0851L66.7171+82.5461L47.9781+88.1711Z" opacity="1" fill="#231f20"/>
<path d="M57.1285+70.0237L57.3105+97.4437" opacity="1" fill="#b2e0e2"/>
<path d="M56.0249+97.4529L55.8429+70.0319L58.4139+70.0149L58.5949+97.4359L56.0249+97.4529Z" opacity="1" fill="#231f20"/>
<path d="M74.2261+80.3489L91.6051+74.9659" opacity="1" fill="#b2e0e2"/>
<path d="M74.606+81.5764L73.846+79.1204L91.225+73.7384L91.985+76.1934L74.606+81.5764Z" opacity="1" fill="#231f20"/>
<path d="M82.399+62.9827L82.399+91.7497" opacity="1" fill="#b2e0e2"/>
<path d="M83.6839+91.7496L81.1139+91.7496L81.1139+62.9826L83.6839+62.9826L83.6839+91.7496Z" opacity="1" fill="#231f20"/>
<path d="M74.2261+117.361L91.6051+112.215" opacity="1" fill="#b2e0e2"/>
<path d="M74.5914+118.593L73.8614+116.128L91.2394+110.983L91.9704+113.447L74.5914+118.593Z" opacity="1" fill="#231f20"/>
<path d="M82.399+99.9949L82.399+128.762" opacity="1" fill="#b2e0e2"/>
<path d="M83.6839+128.762L81.1139+128.762L81.1139+99.9946L83.6839+99.9946L83.6839+128.762Z" opacity="1" fill="#231f20"/>
<path d="M48.983+124.932L48.261+122.464L65.555+117.404L66.277+119.87L48.983+124.932Z" opacity="1" fill="#231f20"/>
<path d="M56.7945+106.333L56.7945+135.1" opacity="1" fill="#b2e0e2"/>
<path d="M58.0799+135.1L55.5099+135.1L55.5099+106.333L58.0799+106.333L58.0799+135.1Z" opacity="1" fill="#231f20"/>
<path d="M144.398+131.552L136.836+131.552L136.836+130.716L139.573+130.716L139.573+120.457C139.573+118.501+140.978+117.304+142.726+117.304L144.398+117.304L144.398+118.14L142.726+118.14C141.396+118.14+140.409+118.994+140.409+120.457L140.409+122.091L144.398+122.091L144.398+122.908L140.409+122.908L140.409+130.716L144.398+130.716L144.398+131.552Z" opacity="1" fill="#231f20"/>
<path d="M153.309+122.529C151.561+122.529+150.136+124.466+150.136+126.822C150.136+129.159+151.561+131.116+153.309+131.116C155.056+131.116+156.481+129.159+156.481+126.822C156.481+124.466+155.056+122.529+153.309+122.529M153.309+131.932C151.105+131.932+149.3+129.615+149.3+126.822C149.3+124.01+151.105+121.712+153.309+121.712C155.532+121.712+157.317+124.01+157.317+126.822C157.317+129.615+155.532+131.932+153.309+131.932" opacity="1" fill="#231f20"/>
<path d="M169.82+122.909L167.425+122.909C166.591+122.909+165.678+123.251+164.994+124.049L164.994+130.717L169.82+130.717L169.82+131.553L161.67+131.553L161.67+130.717L164.159+130.717L164.159+124.125L161.48+122.642L161.879+121.921L164.481+123.365C165.279+122.51+166.4+122.092+167.425+122.092L169.82+122.092L169.82+122.909Z" opacity="1" fill="#231f20"/>
<path d="M193.265+122.262L192.942+122.985C192.258+122.68+191.404+122.547+190.453+122.547C189.314+122.547+188.364+123.156+188.364+124.143C188.364+126.536+193.588+126.327+193.588+129.406C193.588+130.907+192.429+131.932+190.586+131.932C189.276+131.932+188.022+131.59+187.053+130.982L187.509+130.298C188.402+130.811+189.39+131.116+190.586+131.116C191.973+131.116+192.771+130.469+192.771+129.5C192.771+127.031+187.49+127.278+187.49+124.143C187.49+122.851+188.63+121.711+190.453+121.711C191.613+121.711+192.524+121.92+193.265+122.262" opacity="1" fill="#231f20"/>
<path d="M206.698+122.927L202.708+122.927L202.708+128.417C202.708+129.823+203.639+130.736+205.026+130.736L206.698+130.736L206.698+131.552L205.007+131.552C203.24+131.552+201.873+130.336+201.873+128.417L201.873+122.927L198.548+122.927L198.548+122.091L201.873+122.091L201.873+118.748L202.708+118.748L202.708+122.091L206.698+122.091L206.698+122.927Z" opacity="1" fill="#231f20"/>
<path d="M211.905+122.091L212.721+122.091L212.721+127.601C212.721+129.766+213.842+131.115+215.534+131.115C216.996+131.115+218.326+130.013+218.326+127.601L218.326+122.091L219.143+122.091L219.143+127.601C219.143+130.412+217.509+131.932+215.534+131.932C213.463+131.932+211.905+130.336+211.905+127.601L211.905+122.091Z" opacity="1" fill="#231f20"/>
<path d="M230.125+129.501L230.125+123.061C229.479+122.909+228.681+122.719+227.655+122.719C225.489+122.719+224.293+123.802+224.293+126.822C224.293+129.634+225.204+131.116+227.181+131.116C228.491+131.116+229.327+130.223+230.125+129.501M230.562+130.223C229.574+131.116+228.586+131.933+227.181+131.933C224.691+131.933+223.476+130.052+223.476+126.822C223.476+123.46+224.92+121.902+227.655+121.902C228.548+121.902+229.346+122.017+230.125+122.206L230.125+117.305L230.941+117.305L230.941+129.463L233.658+131.191L233.222+131.895L230.562+130.223Z" opacity="1" fill="#231f20"/>
<path d="M237.478+125.511L243.386+125.511C243.197+123.725+241.981+122.547+240.556+122.547C239.036+122.547+237.858+123.687+237.478+125.511M237.383+126.327C237.365+126.498+237.365+126.651+237.365+126.822C237.365+129.406+238.619+131.115+240.556+131.115C241.961+131.115+242.892+130.241+243.386+128.988L244.184+129.235C243.653+130.64+242.494+131.932+240.537+131.932C238.143+131.932+236.547+129.88+236.547+126.822C236.547+124.048+238.029+121.711+240.556+121.711C242.683+121.711+244.374+123.612+244.26+126.327L237.383+126.327Z" opacity="1" fill="#231f20"/>
<path d="M247.719+121.94L249.771+123.345C250.416+122.586+251.689+121.902+253.475+121.902C255.583+121.902+256.799+123.156+256.799+124.961L256.799+131.552L255.983+131.552L255.983+124.961C255.983+123.554+255.071+122.738+253.475+122.738C252.126+122.738+250.91+123.174+250.283+124.048L250.283+131.552L249.466+131.552L249.466+124.143L247.263+122.624L247.719+121.94Z" opacity="1" fill="#231f20"/>
<path d="M268.922+122.927L264.932+122.927L264.932+128.417C264.932+129.823+265.863+130.736+267.25+130.736L268.922+130.736L268.922+131.552L267.231+131.552C265.464+131.552+264.097+130.336+264.097+128.417L264.097+122.927L260.772+122.927L260.772+122.091L264.097+122.091L264.097+118.748L264.932+118.748L264.932+122.091L268.922+122.091L268.922+122.927Z" opacity="1" fill="#231f20"/>
<path d="M280.379+122.262L280.056+122.985C279.372+122.68+278.518+122.547+277.567+122.547C276.428+122.547+275.478+123.156+275.478+124.143C275.478+126.536+280.702+126.327+280.702+129.406C280.702+130.907+279.543+131.932+277.7+131.932C276.39+131.932+275.136+131.59+274.167+130.982L274.623+130.298C275.516+130.811+276.504+131.116+277.7+131.116C279.087+131.116+279.885+130.469+279.885+129.5C279.885+127.031+274.604+127.278+274.604+124.143C274.604+122.851+275.744+121.711+277.567+121.711C278.727+121.711+279.638+121.92+280.379+122.262" opacity="1" fill="#231f20"/>
<path d="M288.435+134.497L289.974+131.724C289.329+131.571+288.967+131.135+288.967+130.508C288.967+129.824+289.518+129.273+290.203+129.273C290.886+129.273+291.437+129.824+291.437+130.508C291.437+130.793+291.38+130.964+291.228+131.249L289.138+134.896L288.435+134.497Z" opacity="1" fill="#231f20"/>
<path d="M312.508+123.175L312.508+130.679C313.211+130.85+314.009+130.907+314.825+130.907C317.39+130.907+318.093+130.014+318.093+126.519C318.093+123.327+317.162+122.719+315.225+122.719C314.122+122.719+313.192+122.966+312.508+123.175M312.508+122.321C313.324+122.073+314.237+121.903+315.225+121.903C317.827+121.903+318.929+123.099+318.929+126.519C318.929+130.147+318.093+131.724+314.825+131.724C313.8+131.724+312.66+131.629+311.672+131.287L311.672+117.305L312.508+117.305L312.508+122.321Z" opacity="1" fill="#231f20"/>
<path d="M331.526+122.225L326.53+136.016L325.751+135.732L327.252+131.552L326.834+131.552L323.243+122.225L324.022+121.94L327.479+130.944L330.747+121.94L331.526+122.225Z" opacity="1" fill="#231f20"/>
<path d="M355.047+122.262L354.724+122.985C354.04+122.68+353.186+122.547+352.235+122.547C351.096+122.547+350.146+123.156+350.146+124.143C350.146+126.536+355.37+126.327+355.37+129.406C355.37+130.907+354.211+131.932+352.368+131.932C351.058+131.932+349.804+131.59+348.835+130.982L349.291+130.298C350.184+130.811+351.172+131.116+352.368+131.116C353.755+131.116+354.553+130.469+354.553+129.5C354.553+127.031+349.272+127.278+349.272+124.143C349.272+122.851+350.412+121.711+352.235+121.711C353.395+121.711+354.306+121.92+355.047+122.262" opacity="1" fill="#231f20"/>
<path d="M368.481+122.927L364.491+122.927L364.491+128.417C364.491+129.823+365.422+130.736+366.809+130.736L368.481+130.736L368.481+131.552L366.79+131.552C365.023+131.552+363.656+130.336+363.656+128.417L363.656+122.927L360.331+122.927L360.331+122.091L363.656+122.091L363.656+118.748L364.491+118.748L364.491+122.091L368.481+122.091L368.481+122.927Z" opacity="1" fill="#231f20"/>
<path d="M373.687+122.091L374.504+122.091L374.504+127.601C374.504+129.766+375.624+131.115+377.316+131.115C378.778+131.115+380.108+130.013+380.108+127.601L380.108+122.091L380.925+122.091L380.925+127.601C380.925+130.412+379.291+131.932+377.316+131.932C375.245+131.932+373.687+130.336+373.687+127.601L373.687+122.091Z" opacity="1" fill="#231f20"/>
<path d="M391.908+129.501L391.908+123.061C391.262+122.909+390.464+122.719+389.438+122.719C387.272+122.719+386.076+123.802+386.076+126.822C386.076+129.634+386.987+131.116+388.964+131.116C390.274+131.116+391.11+130.223+391.908+129.501M392.345+130.223C391.357+131.116+390.369+131.933+388.964+131.933C386.474+131.933+385.259+130.052+385.259+126.822C385.259+123.46+386.703+121.902+389.438+121.902C390.331+121.902+391.129+122.017+391.908+122.206L391.908+117.305L392.724+117.305L392.724+129.463L395.441+131.191L395.005+131.895L392.345+130.223Z" opacity="1" fill="#231f20"/>
<path d="M399.26+125.511L405.168+125.511C404.979+123.725+403.763+122.547+402.338+122.547C400.818+122.547+399.64+123.687+399.26+125.511M399.165+126.327C399.147+126.498+399.147+126.651+399.147+126.822C399.147+129.406+400.401+131.115+402.338+131.115C403.743+131.115+404.674+130.241+405.168+128.988L405.966+129.235C405.435+130.64+404.276+131.932+402.319+131.932C399.925+131.932+398.329+129.88+398.329+126.822C398.329+124.048+399.811+121.711+402.338+121.711C404.465+121.711+406.156+123.612+406.042+126.327L399.165+126.327Z" opacity="1" fill="#231f20"/>
<path d="M409.503+121.94L411.555+123.345C412.2+122.586+413.473+121.902+415.259+121.902C417.367+121.902+418.583+123.156+418.583+124.961L418.583+131.552L417.767+131.552L417.767+124.961C417.767+123.554+416.855+122.738+415.259+122.738C413.91+122.738+412.694+123.174+412.067+124.048L412.067+131.552L411.25+131.552L411.25+124.143L409.047+122.624L409.503+121.94Z" opacity="1" fill="#231f20"/>
<path d="M430.705+122.927L426.716+122.927L426.716+128.417C426.716+129.823+427.646+130.736+429.033+130.736L430.705+130.736L430.705+131.552L429.014+131.552C427.247+131.552+425.88+130.336+425.88+128.417L425.88+122.927L422.555+122.927L422.555+122.091L425.88+122.091L425.88+118.748L426.716+118.748L426.716+122.091L430.705+122.091L430.705+122.927Z" opacity="1" fill="#231f20"/>
<path d="M442.162+122.262L441.839+122.985C441.155+122.68+440.301+122.547+439.35+122.547C438.211+122.547+437.261+123.156+437.261+124.143C437.261+126.536+442.485+126.327+442.485+129.406C442.485+130.907+441.326+131.932+439.483+131.932C438.173+131.932+436.919+131.59+435.95+130.982L436.406+130.298C437.299+130.811+438.287+131.116+439.483+131.116C440.87+131.116+441.668+130.469+441.668+129.5C441.668+127.031+436.387+127.278+436.387+124.143C436.387+122.851+437.527+121.711+439.35+121.711C440.51+121.711+441.421+121.92+442.162+122.262" opacity="1" fill="#231f20"/>
</g>
</svg>
